<svg id="lx8y6gyx41763760" viewBox="0 0 490 322" xmlns="http://www.w3.org/2000/svg" xmlns:xlink="http://www.w3.org/1999/xlink"><g id="lx8y6gyx41763760_translate"><g transform="matrix(1,0,0,1,0,0)"><g id="lx8y6gyx41763760" opacity="1" style="mix-blend-mode:normal"><g><defs><clipPath id="lx8y6gyx41763760_clipPath" x="-50%" y="-50%" width="200%" height="200%"><path d="M0.01,0h489.98c0.00552,0 0.01,0.00448 0.01,0.01v321.98c0,0.00552 -0.00448,0.01 -0.01,0.01h-489.98c-0.00552,0 -0.01,-0.00448 -0.01,-0.01v-321.98c0,-0.00552 0.00448,-0.01 0.01,-0.01z" fill="white" clip-rule="nonzero"></path></clipPath></defs><g clip-path="url(#lx8y6gyx41763760_clipPath)"><g id="lx8y6gyy76202453_translate"><g transform="matrix(1,0,0,1,85,44.5745)"><g id="lx8y6gyy76202453" opacity="1" style="mix-blend-mode:normal"><g><g><g id="lx8y6gyy53569845_translate"><g transform="matrix(1,0,0,1,78.08,35.7346)"><g id="lx8y6gyy53569845" opacity="0.4" style="mix-blend-mode:normal"><g><g><defs><clipPath id="lx8y6gyy53569845_stroke_clip_path" clipPathUnits="userSpaceOnUse"><path d="M163.6873,80.6909c0,44.5656 -36.6414,80.6909 -81.8436,80.6909c-45.2022,0 -81.8436,-36.1253 -81.8436,-80.6909c0,-44.5656 36.6414,-80.6909 81.8436,-80.6909c45.2022,0 81.8436,36.1253 81.8436,80.6909z"></path></clipPath></defs><g style="mix-blend-mode:normal"><g clip-path="url(#lx8y6gyy53569845_stroke_clip_path)"><path id="lx8y6gyy53569845_stroke_path" d="M163.6873,80.6909c0,44.5656 -36.6414,80.6909 -81.8436,80.6909c-45.2022,0 -81.8436,-36.1253 -81.8436,-80.6909c0,-44.5656 36.6414,-80.6909 81.8436,-80.6909c45.2022,0 81.8436,36.1253 81.8436,80.6909z" fill="none" stroke="rgb(90, 172, 143)" stroke-width="2.3054" stroke-linecap="butt" stroke-linejoin="miter" stroke-dasharray="0 0" stroke-opacity="1"></path><defs><mask id="lx8y6gyy53569845_gradient_mask"></mask></defs><rect x="-165.99269999999999" y="-163.6872" width="497.9780999999999" height="491.0616" fill="url(#lx8y6gyy53569845ps0)" mask="url(#lx8y6gyy53569845_gradient_mask)"></rect></g></g></g></g></g></g></g><g id="lx8y6gyz49021841_translate"><g transform="matrix(1,0,0,1,58.4844,16.1384)"><g id="lx8y6gyz49021841" opacity="0.3" style="mix-blend-mode:normal"><g><g><defs><clipPath id="lx8y6gyz49021841_stroke_clip_path" clipPathUnits="userSpaceOnUse"><path d="M202.88,100.2873c0,55.3886 -45.4147,100.2872 -101.44,100.2872c-56.0253,0 -101.44,-44.8986 -101.44,-100.2872c0,-55.3886 45.4147,-100.2872 101.44,-100.2872c56.0253,0 101.44,44.8986 101.44,100.2872z"></path></clipPath></defs><g style="mix-blend-mode:normal"><g clip-path="url(#lx8y6gyz49021841_stroke_clip_path)"><path id="lx8y6gyz49021841_stroke_path" d="M202.88,100.2873c0,55.3886 -45.4147,100.2872 -101.44,100.2872c-56.0253,0 -101.44,-44.8986 -101.44,-100.2872c0,-55.3886 45.4147,-100.2872 101.44,-100.2872c56.0253,0 101.44,44.8986 101.44,100.2872z" fill="none" stroke="rgb(90, 172, 143)" stroke-width="2.3054" stroke-linecap="butt" stroke-linejoin="miter" stroke-dasharray="0 0" stroke-opacity="1"></path><defs><mask id="lx8y6gyz49021841_gradient_mask"></mask></defs><rect x="-205.1854" y="-202.8799" width="615.5562" height="608.6397" fill="url(#lx8y6gyz49021841ps0)" mask="url(#lx8y6gyz49021841_gradient_mask)"></rect></g></g></g></g></g></g></g><g id="lx8y6gz039625239_translate"><g transform="matrix(1,0,0,1,43.4982,0)"><g id="lx8y6gz039625239" opacity="0.1" style="mix-blend-mode:normal"><g><g><defs><clipPath id="lx8y6gz039625239_stroke_clip_path" clipPathUnits="userSpaceOnUse"><path d="M232.851,116.4255c0,64.3018 -52.1237,116.4255 -116.4255,116.4255c-64.3018,0 -116.4254,-52.1237 -116.4254,-116.4255c0,-64.3018 52.1236,-116.4254 116.4254,-116.4254c64.3018,0 116.4255,52.1236 116.4255,116.4254z"></path></clipPath></defs><g style="mix-blend-mode:normal"><g clip-path="url(#lx8y6gz039625239_stroke_clip_path)"><path id="lx8y6gz039625239_stroke_path" d="M232.851,116.4255c0,64.3018 -52.1237,116.4255 -116.4255,116.4255c-64.3018,0 -116.4254,-52.1237 -116.4254,-116.4255c0,-64.3018 52.1236,-116.4254 116.4254,-116.4254c64.3018,0 116.4255,52.1236 116.4255,116.4254z" fill="none" stroke="rgb(90, 172, 143)" stroke-width="2.3054" stroke-linecap="butt" stroke-linejoin="miter" stroke-dasharray="0 0" stroke-opacity="1"></path><defs><mask id="lx8y6gz039625239_gradient_mask"></mask></defs><rect x="-235.1563" y="-235.1563" width="705.4689" height="705.4689" fill="url(#lx8y6gz039625239ps0)" mask="url(#lx8y6gz039625239_gradient_mask)"></rect></g></g></g></g></g></g></g><g id="lx8y6gz150598327_translate"><g transform="matrix(1,0,0,1,0,84.1492)"><g id="lx8y6gz150598327" opacity="1" style="mix-blend-mode:normal"><g><defs><clipPath id="lx8y6gz150598327_clipPath" x="-50%" y="-50%" width="200%" height="200%"><path d="M22,0h87c12.15026,0 22,9.84974 22,22v47.0655c0,12.15026 -9.84974,22 -22,22h-87c-12.15026,0 -22,-9.84974 -22,-22v-47.0655c0,-12.15026 9.84974,-22 22,-22z" fill="white" clip-rule="nonzero"></path></clipPath></defs><g clip-path="url(#lx8y6gz150598327_clipPath)"><path id="lx8y6gz150598327_fill_path" d="M22,0h87c12.15026,0 22,9.84974 22,22v47.0655c0,12.15026 -9.84974,22 -22,22h-87c-12.15026,0 -22,-9.84974 -22,-22v-47.0655c0,-12.15026 9.84974,-22 22,-22z" fill-rule="nonzero" fill="rgb(21, 40, 33)" fill-opacity="1" style="mix-blend-mode:normal"></path><g id="m2d9gadt92365967_translate"><g transform="matrix(1,0,0,1,24,41.5327)"><g id="m2d9gadt92365967" opacity="1" style="mix-blend-mode:normal"><g><g><path id="m2d9gadt92365967_fill_path" d="M3.7334,7.57422h-2.7334v-1.59082h4.4209v13.0166h-1.6875zM7.80273,12.5049c0,-2.0274 0.48633,-3.66213 1.45899,-4.90431c0.97848,-1.24219 2.28218,-1.86329 3.91118,-1.86329c1.0722,0 2.0126,0.28418 2.8212,0.85254c0.8145,0.5625 1.4385,1.35645 1.8721,2.38184c0.4336,1.01953 0.6504,2.19722 0.6504,3.53322c0,2.0449 -0.4775,3.6797 -1.4326,4.9043c-0.9492,1.2187 -2.2529,1.8281 -3.9111,1.8281c-1.1075,0 -2.0684,-0.2783 -2.8829,-0.835c-0.80855,-0.5625 -1.42672,-1.3476 -1.85445,-2.3554c-0.42188,-1.0137 -0.63282,-2.1944 -0.63282,-3.542zM9.55176,12.5049c0,1.6113 0.31933,2.8711 0.95804,3.7793c0.6386,0.9082 1.5263,1.3623 2.6631,1.3623c1.1367,0 2.0185,-0.4541 2.6455,-1.3623c0.6328,-0.9082 0.9492,-2.168 0.9492,-3.7793c0,-1.6289 -0.3164,-2.90041 -0.9492,-3.81447c-0.627,-0.91406 -1.5088,-1.37109 -2.6455,-1.37109c-1.1426,0 -2.0333,0.45996 -2.6719,1.37988c-0.63284,0.91406 -0.94924,2.18258 -0.94924,3.80568zM20.2832,12.5049c0,-2.0274 0.4863,-3.66213 1.459,-4.90431c0.9785,-1.24219 2.2822,-1.86329 3.9111,-1.86329c1.0723,0 2.0127,0.28418 2.8213,0.85254c0.8145,0.5625 1.4385,1.35645 1.8721,2.38184c0.4336,1.01953 0.6504,2.19722 0.6504,3.53322c0,2.0449 -0.4776,3.6797 -1.4326,4.9043c-0.9493,1.2187 -2.253,1.8281 -3.9112,1.8281c-1.1074,0 -2.0683,-0.2783 -2.8828,-0.835c-0.8086,-0.5625 -1.4267,-1.3476 -1.8545,-2.3554c-0.4219,-1.0137 -0.6328,-2.1944 -0.6328,-3.542zM22.0322,12.5049c0,1.6113 0.3194,2.8711 0.958,3.7793c0.6387,0.9082 1.5264,1.3623 2.6631,1.3623c1.1367,0 2.0186,-0.4541 2.6455,-1.3623c0.6328,-0.9082 0.9492,-2.168 0.9492,-3.7793c0,-1.6289 -0.3164,-2.90041 -0.9492,-3.81447c-0.6269,-0.91406 -1.5088,-1.37109 -2.6455,-1.37109c-1.1426,0 -2.0332,0.45996 -2.6719,1.37988c-0.6328,0.91406 -0.9492,2.18258 -0.9492,3.80568zM38.2305,14.377v-8.3936h1.7578v8.2793c0,1.043 0.2783,1.8457 0.8349,2.4082c0.5567,0.5566 1.3536,0.835 2.3907,0.835c1.0254,0 1.8134,-0.2813 2.3642,-0.8438c0.5508,-0.5625 0.8262,-1.3623 0.8262,-2.3994v-8.2793h1.7754v8.3936c0,1.4941 -0.4453,2.6748 -1.3359,3.5419c-0.8907,0.8672 -2.1006,1.3008 -3.6299,1.3008c-1.541,0 -2.7569,-0.4306 -3.6475,-1.292c-0.8906,-0.8672 -1.3359,-2.0507 -1.3359,-3.5507zM50.3594,9.49902c0,-1.11914 0.4101,-2.02148 1.2304,-2.70703c0.8262,-0.6914 1.9102,-1.03711 3.252,-1.03711c1.2422,0 2.2383,0.3252 2.9883,0.97559c0.7558,0.64453 1.1689,1.5293 1.2392,2.6543h-1.7841c-0.0411,-0.64454 -0.2784,-1.14551 -0.712,-1.50293c-0.4336,-0.36329 -1.0166,-0.54493 -1.749,-0.54493c-0.8144,0 -1.4678,0.19336 -1.9599,0.58008c-0.4922,0.38086 -0.7383,0.89063 -0.7383,1.5293c0,1.01951 0.6064,1.67281 1.8193,1.95991l2.1358,0.501c2.1386,0.4864 3.208,1.6436 3.208,3.4717c0,1.166 -0.419,2.0977 -1.2569,2.7949c-0.832,0.6973 -1.9424,1.0459 -3.331,1.0459c-1.3242,0 -2.3965,-0.3252 -3.2168,-0.9756c-0.8145,-0.6503 -1.2481,-1.5322 -1.3008,-2.6455h1.793c0.0175,0.6211 0.2724,1.1162 0.7646,1.4854c0.4922,0.3633 1.1455,0.5449 1.96,0.5449c0.8672,0 1.5527,-0.1875 2.0566,-0.5625c0.5098,-0.3809 0.7647,-0.8935 0.7647,-1.5381c0,-1.0254 -0.6006,-1.6787 -1.8018,-1.9599l-2.1357,-0.4922c-1.0606,-0.2403 -1.8633,-0.6621 -2.4082,-1.2657c-0.545,-0.6035 -0.8174,-1.374 -0.8174,-2.31148zM65.8105,19h-4.3066v-13.0166h4.2275c1.9395,0 3.5098,0.60351 4.711,1.81055c1.207,1.20117 1.8105,2.77145 1.8105,4.71095c0,1.9336 -0.5947,3.501 -1.7841,4.7021c-1.1836,1.1953 -2.7364,1.793 -4.6583,1.793zM65.6084,7.60938h-2.3379v9.75582h2.4082c1.4531,0 2.6045,-0.4365 3.4541,-1.3095c0.8555,-0.8731 1.2832,-2.0567 1.2832,-3.5508c0,-1.5117 -0.4306,-2.70412 -1.292,-3.57717c-0.8613,-0.8789 -2.0332,-1.31835 -3.5156,-1.31835zM72.7803,7.60938v-1.62598h9.5888v1.62598h-3.9023v11.39062h-1.7666v-11.39062z" fill-rule="nonzero" fill="rgb(233, 246, 239)" fill-opacity="1" style="mix-blend-mode:normal"></path></g></g></g></g></g></g></g></g></g></g><g id="lx8y6gzg58001546_translate"><g transform="matrix(1,0,0,1,199.5078,84.1491)"><g id="lx8y6gzg58001546" opacity="1" style="mix-blend-mode:normal"><g><defs><clipPath id="lx8y6gzg58001546_clipPath" x="-50%" y="-50%" width="200%" height="200%"><path d="M22,0h78c12.15026,0 22,9.84974 22,22v47.0655c0,12.15026 -9.84974,22 -22,22h-78c-12.15026,0 -22,-9.84974 -22,-22v-47.0655c0,-12.15026 9.84974,-22 22,-22z" fill="white" clip-rule="nonzero"></path></clipPath></defs><g clip-path="url(#lx8y6gzg58001546_clipPath)"><path id="lx8y6gzg58001546_fill_path" d="M22,0h78c12.15026,0 22,9.84974 22,22v47.0655c0,12.15026 -9.84974,22 -22,22h-78c-12.15026,0 -22,-9.84974 -22,-22v-47.0655c0,-12.15026 9.84974,-22 22,-22z" fill-rule="nonzero" fill="rgb(21, 40, 33)" fill-opacity="1" style="mix-blend-mode:normal"></path><g id="m2d9gae116798395_translate"><g transform="matrix(1,0,0,1,24,41.5327)"><g id="m2d9gae116798395" opacity="1" style="mix-blend-mode:normal"><g><g><path id="m2d9gae116798395_fill_path" d="M3.8125,7.57422h-2.7334v-1.59082h4.4209v13.0166h-1.6875zM7.88184,12.5049c0,-2.0274 0.48632,-3.66213 1.45898,-4.90431c0.97848,-1.24219 2.28218,-1.86329 3.91118,-1.86329c1.0722,0 2.0126,0.28418 2.8212,0.85254c0.8145,0.5625 1.4385,1.35645 1.8721,2.38184c0.4336,1.01953 0.6504,2.19722 0.6504,3.53322c0,2.0449 -0.4775,3.6797 -1.4326,4.9043c-0.9492,1.2187 -2.2529,1.8281 -3.9111,1.8281c-1.1075,0 -2.0684,-0.2783 -2.8829,-0.835c-0.80855,-0.5625 -1.42672,-1.3476 -1.85445,-2.3554c-0.42188,-1.0137 -0.63281,-2.1944 -0.63281,-3.542zM9.63086,12.5049c0,1.6113 0.31934,2.8711 0.95804,3.7793c0.6386,0.9082 1.5263,1.3623 2.6631,1.3623c1.1367,0 2.0185,-0.4541 2.6455,-1.3623c0.6328,-0.9082 0.9492,-2.168 0.9492,-3.7793c0,-1.6289 -0.3164,-2.90041 -0.9492,-3.81447c-0.627,-0.91406 -1.5088,-1.37109 -2.6455,-1.37109c-1.1426,0 -2.0332,0.45996 -2.6719,1.37988c-0.63283,0.91406 -0.94924,2.18258 -0.94924,3.80568zM20.3623,12.5049c0,-2.0274 0.4863,-3.66213 1.459,-4.90431c0.9785,-1.24219 2.2822,-1.86329 3.9111,-1.86329c1.0723,0 2.0127,0.28418 2.8213,0.85254c0.8145,0.5625 1.4385,1.35645 1.8721,2.38184c0.4336,1.01953 0.6504,2.19722 0.6504,3.53322c0,2.0449 -0.4776,3.6797 -1.4326,4.9043c-0.9493,1.2187 -2.253,1.8281 -3.9112,1.8281c-1.1074,0 -2.0683,-0.2783 -2.8828,-0.835c-0.8086,-0.5625 -1.4267,-1.3476 -1.8545,-2.3554c-0.4219,-1.0137 -0.6328,-2.1944 -0.6328,-3.542zM22.1113,12.5049c0,1.6113 0.3194,2.8711 0.958,3.7793c0.6387,0.9082 1.5264,1.3623 2.6631,1.3623c1.1367,0 2.0186,-0.4541 2.6455,-1.3623c0.6328,-0.9082 0.9492,-2.168 0.9492,-3.7793c0,-1.6289 -0.3164,-2.90041 -0.9492,-3.81447c-0.6269,-0.91406 -1.5088,-1.37109 -2.6455,-1.37109c-1.1426,0 -2.0332,0.45996 -2.6719,1.37988c-0.6328,0.91406 -0.9492,2.18258 -0.9492,3.80568zM43.7939,19.2021c-1.2246,0 -2.3056,-0.2753 -3.2431,-0.8261c-0.9317,-0.5567 -1.6524,-1.3418 -2.1621,-2.3555c-0.5098,-1.0137 -0.7647,-2.1855 -0.7647,-3.5156c0,-2.0039 0.5772,-3.62697 1.7315,-4.86916c1.1601,-1.24219 2.6718,-1.86328 4.5351,-1.86328c1.4707,0 2.7217,0.40137 3.753,1.2041c1.0371,0.80274 1.6757,1.86914 1.916,3.19924h-1.8897c-0.2402,-0.84377 -0.7031,-1.50588 -1.3887,-1.98635c-0.6796,-0.48633 -1.4941,-0.72949 -2.4433,-0.72949c-1.3125,0 -2.3672,0.45996 -3.1641,1.37988c-0.7968,0.91407 -1.1953,2.12986 -1.1953,3.64746c0,1.5176 0.3955,2.7334 1.1865,3.6475c0.7969,0.914 1.8545,1.3711 3.1729,1.3711c0.9492,0 1.7754,-0.2373 2.4785,-0.712c0.709,-0.4746 1.1836,-1.1132 1.4238,-1.916h1.8721c-0.2754,1.295 -0.9492,2.3409 -2.0215,3.1377c-1.0664,0.791 -2.332,1.1865 -3.7969,1.1865zM54.2354,13.709l-4.4122,-7.7256h1.9864l2.8916,5.2031c0.1523,0.2637 0.2988,0.5508 0.4394,0.8614c0.2227,-0.4512 0.3662,-0.7383 0.4307,-0.8614l2.874,-5.2031h1.9336l-4.3769,7.7256v5.291h-1.7666zM66.3818,19h-4.3066v-13.0166h4.2275c1.9395,0 3.5098,0.60351 4.711,1.81055c1.207,1.20117 1.8105,2.77145 1.8105,4.71095c0,1.9336 -0.5947,3.501 -1.7842,4.7021c-1.1836,1.1953 -2.7363,1.793 -4.6582,1.793zM66.1797,7.60938h-2.3379v9.75582h2.4082c1.4531,0 2.6045,-0.4365 3.4541,-1.3095c0.8555,-0.8731 1.2832,-2.0567 1.2832,-3.5508c0,-1.5117 -0.4307,-2.70412 -1.292,-3.57717c-0.8613,-0.8789 -2.0332,-1.31835 -3.5156,-1.31835z" fill-rule="nonzero" fill="rgb(233, 246, 239)" fill-opacity="1" style="mix-blend-mode:normal"></path></g></g></g></g></g></g></g></g></g></g><g id="lx8y6gzu99799291_translate"><g transform="matrix(0.840694155868495,-0.5415702988378056,0.5416948894980897,0.8406554653463748,17.21,24.28)"><g id="lx8y6gzu99799291" opacity="0" style="mix-blend-mode:normal"><g><g><g id="lx8y6gzu45029421_translate"><g transform="matrix(0.8406119854150613,0.5415146747332445,-0.5416377910610999,0.8405723449225226,24.3637,6.0845)"><g id="lx8y6gzu45029421" opacity="1" style="mix-blend-mode:normal"><g><g><path id="lx8y6gzu45029421_fill_path" d="M12.83103,38.74039c6.85969,-0.73423 14.13545,-3.96253 20.36842,-8.56397c6.23389,-4.60149 11.45836,-10.60935 14.1791,-16.94957c1.98294,-4.61034 1.30679,-9.49188 -0.19451,-13.22685l4.2573,5.05032c2.64232,3.42121 3.04844,8.63713 0.3744,14.87755c-2.63763,6.13752 -7.7286,12.0127 -13.85491,16.53592c-6.12632,4.52303 -13.23611,7.66191 -19.88152,8.37262c-6.49877,0.69712 -11.25058,-1.06882 -13.8163,-4.35406l-4.263,-5.57954c2.90484,1.62996 8.30131,4.32361 12.83103,3.83759z" fill-rule="nonzero" fill="rgb(10, 56, 44)" fill-opacity="1" style="mix-blend-mode:normal"></path><g style="mix-blend-mode:normal"><g><path id="lx8y6gzu45029421_stroke_path" d="M12.83103,38.74039c6.85969,-0.73423 14.13545,-3.96253 20.36842,-8.56397c6.23389,-4.60149 11.45836,-10.60935 14.1791,-16.94957c1.98294,-4.61034 1.30679,-9.49188 -0.19451,-13.22685l4.2573,5.05032c2.64232,3.42121 3.04844,8.63713 0.3744,14.87755c-2.63763,6.13752 -7.7286,12.0127 -13.85491,16.53592c-6.12632,4.52303 -13.23611,7.66191 -19.88152,8.37262c-6.49877,0.69712 -11.25058,-1.06882 -13.8163,-4.35406l-4.263,-5.57954c2.90484,1.62996 8.30131,4.32361 12.83103,3.83759z" fill="none" stroke="rgb(38, 160, 123)" stroke-width="1.4" stroke-linecap="butt" stroke-linejoin="miter" stroke-dasharray="0 0" stroke-opacity="0.25"></path><defs><mask id="lx8y6gzu45029421_gradient_mask"></mask></defs><rect x="-56.4329" y="-47.7872" width="169.2987" height="143.3616" fill="url(#lx8y6gzu45029421ps0)" mask="url(#lx8y6gzu45029421_gradient_mask)"></rect></g></g></g></g></g></g></g><g id="lx8y6gzx21213603_translate"><g transform="matrix(0.8406119854150613,0.5415146747332445,-0.5416377910610999,0.8405723449225226,25.0602,-0.0019)"><g id="lx8y6gzx21213603" opacity="1" style="mix-blend-mode:normal"><g><g><path id="lx8y6gzx21213603_fill_path" d="M49.80867,19.45791c-2.63761,6.13807 -7.72859,12.01325 -13.8549,16.53655c-6.12634,4.52266 -13.23616,7.66108 -19.876,8.37263c-6.47043,0.69297 -11.28965,-1.15303 -13.86521,-4.41338c-2.69458,-3.41691 -3.06233,-8.56278 -0.35709,-14.862c2.6321,-6.1378 7.7231,-12.01298 13.84943,-16.53564c6.12631,-4.52331 13.23614,-7.66173 19.88149,-8.37346c6.83585,-0.73215 11.32769,0.74337 13.78486,4.31378c2.36874,3.43694 2.9963,9.003 0.4374,14.96151z" fill-rule="nonzero" fill="rgb(10, 56, 44)" fill-opacity="1" style="mix-blend-mode:normal"></path><g style="mix-blend-mode:normal"><g><path id="lx8y6gzx21213603_stroke_path" d="M49.80867,19.45791c-2.63761,6.13807 -7.72859,12.01325 -13.8549,16.53655c-6.12634,4.52266 -13.23616,7.66108 -19.876,8.37263c-6.47043,0.69297 -11.28965,-1.15303 -13.86521,-4.41338c-2.69458,-3.41691 -3.06233,-8.56278 -0.35709,-14.862c2.6321,-6.1378 7.7231,-12.01298 13.84943,-16.53564c6.12631,-4.52331 13.23614,-7.66173 19.88149,-8.37346c6.83585,-0.73215 11.32769,0.74337 13.78486,4.31378c2.36874,3.43694 2.9963,9.003 0.4374,14.96151z" fill="none" stroke="rgb(38, 160, 123)" stroke-width="1.4" stroke-linecap="butt" stroke-linejoin="miter" stroke-dasharray="0 0" stroke-opacity="0.25"></path><defs><mask id="lx8y6gzx21213603_gradient_mask"></mask></defs><rect x="-54.2592" y="-47.311899999999994" width="162.7776" height="141.9357" fill="url(#lx8y6gzx21213603ps0)" mask="url(#lx8y6gzx21213603_gradient_mask)"></rect></g></g></g></g></g></g></g><g id="m2j2me2722175794_translate"><g transform="matrix(0.8406119854150613,0.5415146747332445,-0.5416377910610999,0.8405723449225226,27.63,17.1191)"><g id="m2j2me2722175794" opacity="1" style="mix-blend-mode:normal"><g><g><path id="m2j2me2722175794_fill_path" d="M6.84223,3.40144l7.55642,1.45343l-0.78671,0.99043l-0.78119,0.99071l-0.63632,-0.1168c-0.85382,-0.15924 -4.87278,-0.54567 -6.60519,-0.63593c-5.20368,-0.27085 -7.1456,0.742 -4.23014,2.21193c1.06558,0.53738 4.19239,1.56545 6.2958,2.07094l1.68979,0.40528l-5.72814,6.83722l5.78045,1.07335l5.87715,-6.87719l1.13151,0.20879c1.27826,0.23562 5.4236,0.5902 7.2294,0.6184c1.49532,0.02354 2.71526,-0.10665 3.6067,-0.3843c0.5921,-0.18598 0.69342,-0.26045 0.72666,-0.54186c0.07864,-0.67199 -1.39874,-1.49827 -4.42337,-2.46934c-1.04367,-0.33344 -2.57135,-0.77537 -3.40534,-0.98116l-1.51243,-0.37488l1.68959,-1.97823l3.64382,0.71775c3.01822,0.59407 3.70633,0.69665 4.00507,0.59275c0.25255,-0.08829 0.74167,-0.59278 1.6173,-1.66702l1.25614,-1.54065l-21.20847,-4.00507zM10.50007,9.56272l0.93535,-1.17109c0.75959,-0.94288 0.89425,-1.18309 0.68103,-1.23228c-0.9033,-0.21126 -5.82461,-0.67637 -7.46661,-0.70611c-1.35635,-0.02442 -2.74257,0.15063 -2.93075,0.3695c-0.35369,0.41205 0.89036,1.13588 3.37139,1.96584c2.01773,0.67433 10.27927,2.33348 13.49689,2.71218c4.36295,0.51222 7.51521,0.49405 7.84521,-0.04533c0.33465,-0.55719 -2.18415,-1.68959 -5.65307,-2.53972c-0.76219,-0.1871 -1.62576,-0.4143 -1.91651,-0.5053l-0.53373,-0.16499l-2.11574,2.33902l-1.16195,-0.11623c-0.63374,-0.06378 -1.9237,-0.2935 -2.85676,-0.51086z" fill-rule="evenodd" fill="rgb(38, 160, 123)" fill-opacity="1" style="mix-blend-mode:normal"></path></g></g></g></g></g></g></g></g></g></g><g id="lx8y6h0383601654_translate"><g transform="matrix(1,0,0,1,227.21,10.28)"><g id="lx8y6h0383601654" opacity="0" style="mix-blend-mode:normal"><g><g><g id="lx8y6h0394265848_translate"><g transform="matrix(1,0,0,1,3.998,6.3364)"><g id="lx8y6h0394265848" opacity="1" style="mix-blend-mode:normal"><g><g><path id="lx8y6h0394265848_fill_path" d="M11.69349,38.72676c7.20444,-0.4178 14.97061,-3.42021 21.7172,-7.91041c6.74755,-4.4902 12.51207,-10.50119 15.6776,-16.98693c2.30657,-4.71594 1.84873,-9.85063 0.47037,-13.82941l4.19088,5.49341c2.58648,3.70907 2.74518,9.17939 -0.36649,15.56323c-3.06838,6.2782 -8.68668,12.15736 -15.31784,16.57126c-6.63116,4.4137 -14.21939,7.33115 -21.19875,7.73528c-6.82546,0.3974 -11.70025,-1.68966 -14.21363,-5.25276l-2.65285,-3.89525c2.95199,1.85093 6.93606,2.7887 11.69349,2.51159z" fill-rule="nonzero" fill="rgb(90, 172, 143)" fill-opacity="1" style="mix-blend-mode:normal"></path><g style="mix-blend-mode:normal"><g><path id="lx8y6h0394265848_stroke_path" d="M11.69349,38.72676c7.20444,-0.4178 14.97061,-3.42021 21.7172,-7.91041c6.74755,-4.4902 12.51207,-10.50119 15.6776,-16.98693c2.30657,-4.71594 1.84873,-9.85063 0.47037,-13.82941l4.19088,5.49341c2.58648,3.70907 2.74518,9.17939 -0.36649,15.56323c-3.06838,6.2782 -8.68668,12.15736 -15.31784,16.57126c-6.63116,4.4137 -14.21939,7.33115 -21.19875,7.73528c-6.82546,0.3974 -11.70025,-1.68966 -14.21363,-5.25276l-2.65285,-3.89525c2.95199,1.85093 6.93606,2.7887 11.69349,2.51159z" fill="none" stroke="rgb(56, 143, 114)" stroke-width="1.1527" stroke-linecap="butt" stroke-linejoin="miter" stroke-dasharray="0 0" stroke-opacity="1"></path><defs><mask id="lx8y6h0394265848_gradient_mask"></mask></defs><rect x="-58.0092" y="-47.7168" width="174.0276" height="143.1504" fill="url(#lx8y6h0394265848ps0)" mask="url(#lx8y6h0394265848_gradient_mask)"></rect></g></g></g></g></g></g></g><g id="lx8y6h0512179140_translate"><g transform="matrix(1,0,0,1,0,0)"><g id="lx8y6h0512179140" opacity="1" style="mix-blend-mode:normal"><g><g><path id="lx8y6h0512179140_fill_path" d="M52.75243,20.92291c-3.06838,6.27877 -8.68667,12.15793 -15.31783,16.57192c-6.63116,4.41332 -14.21938,7.33029 -21.19296,7.73558c-6.79564,0.39451 -11.73679,-1.77963 -14.2617,-5.31723c-2.64131,-3.70724 -2.76348,-9.1024 0.38378,-15.5461c3.06261,-6.27877 8.68092,-12.15794 15.31208,-16.57126c6.63116,-4.41399 14.21939,-7.33096 21.19875,-7.73615c7.17943,-0.41683 11.79738,1.35356 14.18283,5.20907c2.29984,3.71157 2.67207,9.55898 -0.30493,15.65416z" fill-rule="nonzero" fill="rgb(90, 172, 143)" fill-opacity="1" style="mix-blend-mode:normal"></path><g style="mix-blend-mode:normal"><g><path id="lx8y6h0512179140_stroke_path" d="M52.75243,20.92291c-3.06838,6.27877 -8.68667,12.15793 -15.31783,16.57192c-6.63116,4.41332 -14.21938,7.33029 -21.19296,7.73558c-6.79564,0.39451 -11.73679,-1.77963 -14.2617,-5.31723c-2.64131,-3.70724 -2.76348,-9.1024 0.38378,-15.5461c3.06261,-6.27877 8.68092,-12.15794 15.31208,-16.57126c6.63116,-4.41399 14.21939,-7.33096 21.19875,-7.73615c7.17943,-0.41683 11.79738,1.35356 14.18283,5.20907c2.29984,3.71157 2.67207,9.55898 -0.30493,15.65416z" fill="none" stroke="rgb(56, 143, 114)" stroke-width="1.1527" stroke-linecap="butt" stroke-linejoin="miter" stroke-dasharray="0 0" stroke-opacity="1"></path><defs><mask id="lx8y6h0512179140_gradient_mask"></mask></defs><rect x="-57.1892" y="-47.5818" width="171.5676" height="142.74540000000002" fill="url(#lx8y6h0512179140ps0)" mask="url(#lx8y6h0512179140_gradient_mask)"></rect></g></g></g></g></g></g></g><g id="lx8y6h0725650036_translate"><g transform="matrix(1,0,0,1,10.6171,9.4653)"><g id="lx8y6h0725650036" opacity="1" style="mix-blend-mode:normal"><g><g><path id="lx8y6h0725650036_fill_path" d="M23.52368,2.64055l-1.08466,-0.04464c-0.79873,-0.03287 -1.09936,-0.60692 -0.67147,-1.28217c0.42789,-0.67525 1.42225,-1.196 2.22098,-1.16312l1.08466,0.04464c7.18856,0.29587 9.89421,5.4623 6.04324,11.53955l-1.624,2.56285c-0.42789,0.67525 -1.42225,1.196 -2.22098,1.16312c-0.79873,-0.03287 -1.09936,-0.60692 -0.67147,-1.28217l1.624,-2.56285c2.9952,-4.72675 0.8908,-8.74508 -4.7003,-8.9752zM16.44567,0.00147c0.79873,0.03287 1.09936,0.60692 0.67147,1.28217l-3.16405,4.99321c2.35762,-1.16217 4.93683,-1.82498 7.2501,-1.72977c4.91703,0.20238 6.74448,3.75183 4.10643,7.91495l-5.07676,8.01169l1.21994,-0.63888c0.86735,-0.45423 1.78305,-0.41654 2.04527,0.08418c0.26223,0.50072 -0.22832,1.27486 -1.09567,1.72909l-4.48467,2.34861c-0.50083,0.26228 -1.01779,0.36055 -1.41574,0.30036c-0.05975,0.0033 -0.11876,0.00383 -0.17674,0.00144c-0.79873,-0.03287 -1.09936,-0.60692 -0.67147,-1.28217l3.23231,-5.10093c-2.35762,1.16217 -4.93683,1.82498 -7.25011,1.72977c-4.91703,-0.20238 -6.74448,-3.75183 -4.10643,-7.91495l4.84794,-7.65058l-1.22168,0.63979c-0.86735,0.45423 -1.78305,0.41654 -2.04527,-0.08418c-0.26223,-0.50072 0.22832,-1.27486 1.09567,-1.72909l4.48467,-2.34861c0.12124,-0.06349 0.24343,-0.11738 0.36464,-0.16173c0.43572,-0.25804 0.94352,-0.41276 1.39014,-0.39438zM22.41718,12.34299c1.79001,-2.82483 0.54168,-5.21457 -2.76349,-5.3506c-3.30517,-0.13603 -7.44167,2.03208 -9.23168,4.85691c-1.79001,2.82483 -0.54168,5.21457 2.76349,5.3506c3.30517,0.13604 7.44167,-2.03208 9.23168,-4.8569zM6.64085,7.03619c0.79873,0.03287 1.09936,0.60692 0.67147,1.28217l-2.66694,4.20872c-2.9952,4.72675 -0.8908,8.74508 4.7003,8.9752l1.08465,0.04464c0.79873,0.03287 1.09936,0.60692 0.67147,1.28217c-0.42788,0.67525 -1.42225,1.196 -2.22098,1.16312l-1.08466,-0.04464c-7.18856,-0.29587 -9.89421,-5.4623 -6.04324,-11.53955l2.66694,-4.20872c0.42789,-0.67525 1.42225,-1.196 2.22098,-1.16312z" fill-rule="evenodd" fill="rgb(255, 255, 255)" fill-opacity="1" style="mix-blend-mode:normal"></path></g></g></g></g></g></g></g></g></g></g><g id="lx8y6h0b58405098_translate"><g transform="matrix(1,0,0,1,148.998,95.6765)"><g id="lx8y6h0b58405098" opacity="1" style="mix-blend-mode:normal"><g><g><path id="lx8y6h0b58405098_fill_path" d="M21.0765,18.1195v3.0985h-17.17106v-3.0985zM21.0765,25.4462v3.0985h-17.17106v-3.0985z" fill-rule="nonzero" fill="rgb(90, 172, 143)" fill-opacity="1" style="mix-blend-mode:normal"></path></g></g></g></g></g></g></g></g></g></g></g></g></g></g></g><animateTransform href="#lx8y6gyy53569845" attributeName="transform" type="translate" values="81.8437 80.6909;81.8437 80.6909;81.8437 80.6909;81.8437 80.6909;81.8437 80.6909" dur="4.5s" repeatCount="indefinite" calcMode="spline" keyTimes="0;0.08;0.47;1;1" keySplines="0.5 0 0.5 1;0.5 0 0.15 1;0.5 0.35 1 1;0.5 0 0.5 1" additive="sum" fill="freeze"></animateTransform><animateTransform href="#lx8y6gyy53569845" attributeName="transform" type="scale" values="1 1;1 1;1.24 1.24;1.0022 1.0022;1 1" dur="4.5s" repeatCount="indefinite" calcMode="spline" keyTimes="0;0.08;0.47;1;1" keySplines="0.5 0 0.5 1;0.5 0 0.15 1;0.5 0.35 1 1;0.5 0 0.5 1" additive="sum" fill="freeze"></animateTransform><animateTransform href="#lx8y6gyy53569845" attributeName="transform" type="translate" values="-81.8437 -80.6909;-81.8437 -80.6909;-81.8437 -80.6909;-81.8437 -80.6909;-81.8437 -80.6909" dur="4.5s" repeatCount="indefinite" calcMode="spline" keyTimes="0;0.08;0.47;1;1" keySplines="0.5 0 0.5 1;0.5 0 0.15 1;0.5 0.35 1 1;0.5 0 0.5 1" additive="sum" fill="freeze"></animateTransform><animateTransform href="#lx8y6gyz49021841" attributeName="transform" type="translate" values="101.44 100.2873;101.44 100.2873;101.44 100.2873;101.44 100.2873;101.44 100.2873" dur="4.5s" repeatCount="indefinite" calcMode="spline" keyTimes="0;0.05;0.46;1;1" keySplines="0.5 0 0.5 1;0.5 0 0.5 1;0.5 0 1 1;0.5 0 0.5 1" additive="sum" fill="freeze"></animateTransform><animateTransform href="#lx8y6gyz49021841" attributeName="transform" type="scale" values="1 1;1 1;1.31 1.31;1.004 1.004;1 1" dur="4.5s" repeatCount="indefinite" calcMode="spline" keyTimes="0;0.05;0.46;1;1" keySplines="0.5 0 0.5 1;0.5 0 0.5 1;0.5 0 1 1;0.5 0 0.5 1" additive="sum" fill="freeze"></animateTransform><animateTransform href="#lx8y6gyz49021841" attributeName="transform" type="translate" values="-101.44 -100.2873;-101.44 -100.2873;-101.44 -100.2873;-101.44 -100.2873;-101.44 -100.2873" dur="4.5s" repeatCount="indefinite" calcMode="spline" keyTimes="0;0.05;0.46;1;1" keySplines="0.5 0 0.5 1;0.5 0 0.5 1;0.5 0 1 1;0.5 0 0.5 1" additive="sum" fill="freeze"></animateTransform><animateTransform href="#lx8y6gz039625239" attributeName="transform" type="translate" values="116.4255 116.4255;116.4255 116.4255;116.4255 116.4255;116.4255 116.4255;116.4255 116.4255" dur="4.5s" repeatCount="indefinite" calcMode="spline" keyTimes="0;0.02;0.43;1;1" keySplines="0.5 0 0.5 1;0.5 0 0.5 1;0.5 0 1 1;0.5 0 0.5 1" additive="sum" fill="freeze"></animateTransform><animateTransform href="#lx8y6gz039625239" attributeName="transform" type="scale" values="1 1;1 1;1.33 1.33;1.0042 1.0042;1 1" dur="4.5s" repeatCount="indefinite" calcMode="spline" keyTimes="0;0.02;0.43;1;1" keySplines="0.5 0 0.5 1;0.5 0 0.5 1;0.5 0 1 1;0.5 0 0.5 1" additive="sum" fill="freeze"></animateTransform><animateTransform href="#lx8y6gz039625239" attributeName="transform" type="translate" values="-116.4255 -116.4255;-116.4255 -116.4255;-116.4255 -116.4255;-116.4255 -116.4255;-116.4255 -116.4255" dur="4.5s" repeatCount="indefinite" calcMode="spline" keyTimes="0;0.02;0.43;1;1" keySplines="0.5 0 0.5 1;0.5 0 0.5 1;0.5 0 1 1;0.5 0 0.5 1" additive="sum" fill="freeze"></animateTransform><animateTransform href="#lx8y6gzu99799291_translate" attributeName="transform" type="translate" values="0 0;0 0;0 53.1157;-0.0009 53.1182;-0.0009 -16.3307;-0.0009 -19.8333" dur="4.5s" repeatCount="indefinite" calcMode="spline" keyTimes="0;0.16;0.34;0.88;1;1" keySplines="0.5 0.35 0.15 1;0.5 0.35 0.15 1;0.5 0.35 0.15 1;0.5 0.35 1 1;0.5 0.35 0.15 1" additive="sum" fill="freeze"></animateTransform><animate href="#lx8y6gzu99799291" attributeName="opacity" values="0;0;1;1;0.048;0" dur="4.5s" repeatCount="indefinite" calcMode="spline" keyTimes="0;0.15;0.33;0.88;1;1" keySplines="0.5 0.35 0.15 1;0.5 0.35 0.15 1;0.5 0.35 0.15 1;0.5 0.35 1 1;0.5 0.35 0.15 1" additive="replace" fill="freeze"></animate><animateTransform href="#lx8y6h0383601654_translate" attributeName="transform" type="translate" values="0 0;0 0;0 53.1157;-0.0007 53.1176;-0.0009 53.1182;-0.0009 3.1182" dur="4.5s" repeatCount="indefinite" calcMode="spline" keyTimes="0;0.11;0.29;0.54;0.86;1" keySplines="0.5 0.35 0.15 1;0.5 0.35 0.15 1;0.5 0.35 0.15 1;0.5 0.35 0.15 1;0.5 0.35 0.15 1" additive="sum" fill="freeze"></animateTransform><animate href="#lx8y6h0383601654" attributeName="opacity" values="0;0;1;1;0.0171;0" dur="4.5s" repeatCount="indefinite" calcMode="spline" keyTimes="0;0.11;0.29;0.86;1;1" keySplines="0.5 0.35 0.15 1;0.5 0.35 0.15 1;0.5 0.35 0.15 1;0.5 0.35 1 1;0.5 0.35 0.15 1" additive="replace" fill="freeze"></animate></svg>