<svg id="lx8yjed224949510" viewBox="0 0 490 322" xmlns="http://www.w3.org/2000/svg" xmlns:xlink="http://www.w3.org/1999/xlink"><g id="lx8yjed224949510_translate"><g transform="matrix(1,0,0,1,0,0)"><g id="lx8yjed224949510" opacity="1" style="mix-blend-mode:normal"><g><defs><clipPath id="lx8yjed224949510_clipPath" x="-50%" y="-50%" width="200%" height="200%"><path d="M0.01,0h489.98c0.00552,0 0.01,0.00448 0.01,0.01v321.98c0,0.00552 -0.00448,0.01 -0.01,0.01h-489.98c-0.00552,0 -0.01,-0.00448 -0.01,-0.01v-321.98c0,-0.00552 0.00448,-0.01 0.01,-0.01z" fill="white" clip-rule="nonzero"></path></clipPath></defs><g clip-path="url(#lx8yjed224949510_clipPath)"><g id="lx8yjed300982137_translate"><g transform="matrix(1,0,0,1,100,16)"><g id="lx8yjed300982137" opacity="0.04" style="mix-blend-mode:normal"><g><g><path id="lx8yjed300982137_fill_path" d="M291,145.5c0,80.3597 -65.1403,145.5 -145.5,145.5c-80.3596,0 -145.5,-65.1403 -145.5,-145.5c0,-80.3596 65.1404,-145.5 145.5,-145.5c80.3597,0 145.5,65.1404 145.5,145.5z" fill-rule="nonzero" fill="rgb(90, 172, 143)" fill-opacity="1" style="mix-blend-mode:normal"></path></g></g></g></g></g><g id="lx8yjed452712948_translate"><g transform="matrix(1,0,0,1,174.21,44.28)"><g id="lx8yjed452712948" opacity="0" style="mix-blend-mode:normal"><g><g><g id="lx8yjed488625498_translate"><g transform="matrix(1,0,0,1,11.9027,18.8645)"><g id="lx8yjed488625498" opacity="1" style="mix-blend-mode:normal"><g><g><path id="lx8yjed488625498_fill_path" d="M34.81356,115.29633c21.44887,-1.24385 44.57014,-10.18257 64.6559,-23.55068c20.08863,-13.36811 37.25063,-31.26387 46.67496,-50.57307c6.86708,-14.04017 5.504,-29.32705 1.40037,-41.17258l12.47699,16.35485c7.7004,11.04255 8.17287,27.32864 -1.09109,46.33447c-9.1351,18.69129 -25.86175,36.19459 -45.60388,49.33553c-19.74213,13.14036 -42.33361,21.82611 -63.11238,23.02928c-20.32059,1.18312 -34.83368,-5.03041 -42.31645,-15.63838l-7.89798,-11.59685c8.7886,5.51053 20.64986,8.30246 34.81356,7.47743z" fill-rule="nonzero" fill="rgb(90, 172, 143)" fill-opacity="1" style="mix-blend-mode:normal"></path><g style="mix-blend-mode:normal"><g><path id="lx8yjed488625498_stroke_path" d="M34.81356,115.29633c21.44887,-1.24385 44.57014,-10.18257 64.6559,-23.55068c20.08863,-13.36811 37.25063,-31.26387 46.67496,-50.57307c6.86708,-14.04017 5.504,-29.32705 1.40037,-41.17258l12.47699,16.35485c7.7004,11.04255 8.17287,27.32864 -1.09109,46.33447c-9.1351,18.69129 -25.86175,36.19459 -45.60388,49.33553c-19.74213,13.14036 -42.33361,21.82611 -63.11238,23.02928c-20.32059,1.18312 -34.83368,-5.03041 -42.31645,-15.63838l-7.89798,-11.59685c8.7886,5.51053 20.64986,8.30246 34.81356,7.47743z" fill="none" stroke="rgb(64, 148, 119)" stroke-width="1" stroke-linecap="butt" stroke-linejoin="miter" stroke-dasharray="0 0" stroke-opacity="1"></path><defs><mask id="lx8yjed488625498_gradient_mask"></mask></defs><rect x="-167.84" y="-137.1976" width="503.52" height="411.5928" fill="url(#lx8yjed488625498ps0)" mask="url(#lx8yjed488625498_gradient_mask)"></rect></g></g></g></g></g></g></g><g id="lx8yjed615052176_translate"><g transform="matrix(1,0,0,1,0,0)"><g id="lx8yjed615052176" opacity="1" style="mix-blend-mode:normal"><g><g><path id="lx8yjed615052176_fill_path" d="M157.05321,62.29115c-9.1351,18.693 -25.86174,36.19629 -45.60386,49.33751c-19.74212,13.13922 -42.33357,21.82355 -63.09516,23.03016c-20.23181,1.17453 -34.94246,-5.29827 -42.45959,-15.83032c-7.86363,-11.0371 -8.22735,-27.09944 1.14257,-46.28346c9.11792,-18.693 25.84462,-36.1963 45.58674,-49.33552c19.74212,-13.14122 42.3336,-21.82556 63.11237,-23.03188c21.37441,-1.24099 35.12287,4.02977 42.22477,15.50832c6.84703,11.04999 7.95522,28.45876 -0.90783,46.60518z" fill-rule="nonzero" fill="rgb(90, 172, 143)" fill-opacity="1" style="mix-blend-mode:normal"></path><g style="mix-blend-mode:normal"><g><path id="lx8yjed615052176_stroke_path" d="M157.05321,62.29115c-9.1351,18.693 -25.86174,36.19629 -45.60386,49.33751c-19.74212,13.13922 -42.33357,21.82355 -63.09516,23.03016c-20.23181,1.17453 -34.94246,-5.29827 -42.45959,-15.83032c-7.86363,-11.0371 -8.22735,-27.09944 1.14257,-46.28346c9.11792,-18.693 25.84462,-36.1963 45.58674,-49.33552c19.74212,-13.14122 42.3336,-21.82556 63.11237,-23.03188c21.37441,-1.24099 35.12287,4.02977 42.22477,15.50832c6.84703,11.04999 7.95522,28.45876 -0.90783,46.60518z" fill="none" stroke="rgb(64, 148, 119)" stroke-width="1" stroke-linecap="butt" stroke-linejoin="miter" stroke-dasharray="0 0" stroke-opacity="1"></path><defs><mask id="lx8yjed615052176_gradient_mask"></mask></defs><rect x="-165.3987" y="-136.7958" width="496.1961" height="410.38740000000007" fill="url(#lx8yjed615052176ps0)" mask="url(#lx8yjed615052176_gradient_mask)"></rect></g></g></g></g></g></g></g><g id="lx8yjed815978457_translate"><g transform="matrix(1,0,0,1,31.6078,28.1799)"><g id="lx8yjed815978457" opacity="1" style="mix-blend-mode:normal"><g><g><path id="lx8yjed815978457_fill_path" d="M70.03411,7.86138l-3.22921,-0.13291c-2.37796,-0.09787 -3.27298,-1.80691 -1.99909,-3.81725c1.27389,-2.01034 4.2343,-3.5607 6.61225,-3.46282l3.22921,0.13291c21.40159,0.88085 29.45679,16.26222 17.99179,34.35525l-4.83492,7.63004c-1.27389,2.01034 -4.2343,3.5607 -6.61225,3.46282c-2.37795,-0.09787 -3.27297,-1.80691 -1.99908,-3.81725l4.83492,-7.63004c8.91722,-14.07236 2.65207,-26.03564 -13.99361,-26.72075zM48.96163,0.00439c2.37795,0.09787 3.27298,1.80691 1.99909,3.81725l-9.41991,14.86567c7.01904,-3.45998 14.6978,-5.43329 21.58482,-5.14983c14.63886,0.60251 20.07949,11.16984 12.22558,23.56418l-15.11441,23.85221l3.63198,-1.90207c2.58224,-1.35232 5.30844,-1.24011 6.08914,0.25062c0.78069,1.49073 -0.67976,3.79547 -3.262,5.14779l-13.35164,6.99223c-1.49106,0.78087 -3.03013,1.07343 -4.21491,0.89423c-0.17788,0.00981 -0.35357,0.01139 -0.52619,0.00428c-2.37795,-0.09787 -3.27298,-1.80691 -1.99909,-3.81725l9.62314,-15.18637c-7.01903,3.45998 -14.69781,5.43328 -21.58483,5.14982c-14.63886,-0.60251 -20.07949,-11.16984 -12.22557,-23.56418l14.43315,-22.7771l-3.63717,1.90478c-2.58224,1.35232 -5.30844,1.24011 -6.08914,-0.25062c-0.78069,-1.49073 0.67975,-3.79547 3.262,-5.14779l13.35164,-6.99223c0.36096,-0.18903 0.72473,-0.34945 1.08561,-0.48149c1.29722,-0.76824 2.80902,-1.22887 4.1387,-1.17414zM66.73986,36.74723c5.32917,-8.41001 1.61268,-15.52468 -8.2274,-15.92968c-9.84008,-0.405 -22.15515,6.04984 -27.48431,14.45986c-5.32916,8.41001 -1.61268,15.52468 8.2274,15.92968c9.84008,0.405 22.15514,-6.04984 27.48431,-14.45985zM19.77096,20.94798c2.37795,0.09787 3.27298,1.80691 1.99909,3.81725l-7.93993,12.53009c-8.91722,14.07236 -2.65206,26.03564 13.99362,26.72075l3.2292,0.1329c2.37796,0.09787 3.27298,1.80692 1.99909,3.81726c-1.27389,2.01034 -4.23429,3.5607 -6.61225,3.46283l-3.22921,-0.13291c-21.40159,-0.88085 -29.45679,-16.26222 -17.99179,-34.35525l7.93993,-12.53009c1.27389,-2.01034 4.23429,-3.5607 6.61225,-3.46282z" fill-rule="evenodd" fill="rgb(255, 255, 255)" fill-opacity="1" style="mix-blend-mode:normal"></path></g></g></g></g></g></g></g></g></g></g><g id="lx8yjede16384013_translate"><g transform="matrix(1,0,0,1,159.21,27.28)"><g id="lx8yjede16384013" opacity="0" style="mix-blend-mode:normal"><g><g><g id="lx8yjede94950385_translate"><g transform="matrix(1,0,0,1,11.9027,18.8645)"><g id="lx8yjede94950385" opacity="1" style="mix-blend-mode:normal"><g><g><path id="lx8yjede94950385_fill_path" d="M34.81356,115.29633c21.44887,-1.24385 44.57014,-10.18257 64.6559,-23.55068c20.08863,-13.36811 37.25063,-31.26387 46.67496,-50.57307c6.86708,-14.04017 5.504,-29.32705 1.40037,-41.17258l12.47699,16.35485c7.7004,11.04255 8.17287,27.32864 -1.09109,46.33447c-9.1351,18.69129 -25.86175,36.19459 -45.60388,49.33553c-19.74213,13.14036 -42.33361,21.82611 -63.11238,23.02928c-20.32059,1.18312 -34.83368,-5.03041 -42.31645,-15.63838l-7.89798,-11.59685c8.7886,5.51053 20.64986,8.30246 34.81356,7.47743z" fill-rule="nonzero" fill="rgb(90, 172, 143)" fill-opacity="1" style="mix-blend-mode:normal"></path><g style="mix-blend-mode:normal"><g><path id="lx8yjede94950385_stroke_path" d="M34.81356,115.29633c21.44887,-1.24385 44.57014,-10.18257 64.6559,-23.55068c20.08863,-13.36811 37.25063,-31.26387 46.67496,-50.57307c6.86708,-14.04017 5.504,-29.32705 1.40037,-41.17258l12.47699,16.35485c7.7004,11.04255 8.17287,27.32864 -1.09109,46.33447c-9.1351,18.69129 -25.86175,36.19459 -45.60388,49.33553c-19.74213,13.14036 -42.33361,21.82611 -63.11238,23.02928c-20.32059,1.18312 -34.83368,-5.03041 -42.31645,-15.63838l-7.89798,-11.59685c8.7886,5.51053 20.64986,8.30246 34.81356,7.47743z" fill="none" stroke="rgb(64, 148, 119)" stroke-width="1" stroke-linecap="butt" stroke-linejoin="miter" stroke-dasharray="0 0" stroke-opacity="1"></path><defs><mask id="lx8yjede94950385_gradient_mask"></mask></defs><rect x="-167.84" y="-137.1976" width="503.52" height="411.5928" fill="url(#lx8yjede94950385ps0)" mask="url(#lx8yjede94950385_gradient_mask)"></rect></g></g></g></g></g></g></g><g id="lx8yjedg08217894_translate"><g transform="matrix(1,0,0,1,0,0)"><g id="lx8yjedg08217894" opacity="1" style="mix-blend-mode:normal"><g><g><path id="lx8yjedg08217894_fill_path" d="M157.05321,62.29115c-9.1351,18.693 -25.86174,36.19629 -45.60386,49.33751c-19.74212,13.13922 -42.33357,21.82355 -63.09516,23.03016c-20.23181,1.17453 -34.94246,-5.29827 -42.45959,-15.83032c-7.86363,-11.0371 -8.22735,-27.09944 1.14257,-46.28346c9.11792,-18.693 25.84462,-36.1963 45.58674,-49.33552c19.74212,-13.14122 42.3336,-21.82556 63.11237,-23.03188c21.37441,-1.24099 35.12287,4.02977 42.22477,15.50832c6.84703,11.04999 7.95522,28.45876 -0.90783,46.60518z" fill-rule="nonzero" fill="rgb(90, 172, 143)" fill-opacity="1" style="mix-blend-mode:normal"></path><g style="mix-blend-mode:normal"><g><path id="lx8yjedg08217894_stroke_path" d="M157.05321,62.29115c-9.1351,18.693 -25.86174,36.19629 -45.60386,49.33751c-19.74212,13.13922 -42.33357,21.82355 -63.09516,23.03016c-20.23181,1.17453 -34.94246,-5.29827 -42.45959,-15.83032c-7.86363,-11.0371 -8.22735,-27.09944 1.14257,-46.28346c9.11792,-18.693 25.84462,-36.1963 45.58674,-49.33552c19.74212,-13.14122 42.3336,-21.82556 63.11237,-23.03188c21.37441,-1.24099 35.12287,4.02977 42.22477,15.50832c6.84703,11.04999 7.95522,28.45876 -0.90783,46.60518z" fill="none" stroke="rgb(64, 148, 119)" stroke-width="1" stroke-linecap="butt" stroke-linejoin="miter" stroke-dasharray="0 0" stroke-opacity="1"></path><defs><mask id="lx8yjedg08217894_gradient_mask"></mask></defs><rect x="-165.3987" y="-136.7958" width="496.1961" height="410.38740000000007" fill="url(#lx8yjedg08217894ps0)" mask="url(#lx8yjedg08217894_gradient_mask)"></rect></g></g></g></g></g></g></g><g id="lx8yjedi91004269_translate"><g transform="matrix(1,0,0,1,31.6078,28.1798)"><g id="lx8yjedi91004269" opacity="1" style="mix-blend-mode:normal"><g><g><path id="lx8yjedi91004269_fill_path" d="M70.03411,7.86138l-3.22921,-0.13291c-2.37796,-0.09787 -3.27298,-1.80691 -1.99909,-3.81725c1.27389,-2.01034 4.2343,-3.5607 6.61225,-3.46282l3.22921,0.13291c21.40159,0.88085 29.45679,16.26222 17.99179,34.35525l-4.83492,7.63004c-1.27389,2.01034 -4.2343,3.5607 -6.61225,3.46282c-2.37795,-0.09787 -3.27297,-1.80691 -1.99908,-3.81725l4.83492,-7.63004c8.91722,-14.07236 2.65207,-26.03564 -13.99361,-26.72075zM48.96163,0.00439c2.37795,0.09787 3.27298,1.80691 1.99909,3.81725l-9.41991,14.86567c7.01904,-3.45998 14.6978,-5.43329 21.58482,-5.14983c14.63886,0.60251 20.07949,11.16984 12.22558,23.56418l-15.11441,23.85221l3.63198,-1.90207c2.58224,-1.35232 5.30844,-1.24011 6.08914,0.25062c0.78069,1.49073 -0.67976,3.79547 -3.262,5.14779l-13.35164,6.99223c-1.49106,0.78087 -3.03013,1.07343 -4.21491,0.89423c-0.17788,0.00981 -0.35357,0.01139 -0.52619,0.00428c-2.37795,-0.09787 -3.27298,-1.80691 -1.99909,-3.81725l9.62314,-15.18637c-7.01903,3.45998 -14.69781,5.43328 -21.58483,5.14982c-14.63886,-0.60251 -20.07949,-11.16984 -12.22557,-23.56418l14.43315,-22.7771l-3.63717,1.90478c-2.58224,1.35232 -5.30844,1.24011 -6.08914,-0.25062c-0.78069,-1.49073 0.67975,-3.79547 3.262,-5.14779l13.35164,-6.99223c0.36096,-0.18903 0.72473,-0.34945 1.08561,-0.48149c1.29722,-0.76824 2.80902,-1.22887 4.1387,-1.17414zM66.73986,36.74723c5.32917,-8.41001 1.61268,-15.52468 -8.2274,-15.92968c-9.84008,-0.405 -22.15515,6.04984 -27.48431,14.45986c-5.32916,8.41001 -1.61268,15.52468 8.2274,15.92968c9.84008,0.405 22.15514,-6.04984 27.48431,-14.45985zM19.77096,20.94798c2.37795,0.09787 3.27298,1.80691 1.99909,3.81725l-7.93993,12.53009c-8.91722,14.07236 -2.65206,26.03564 13.99362,26.72075l3.2292,0.1329c2.37796,0.09787 3.27298,1.80692 1.99909,3.81726c-1.27389,2.01034 -4.23429,3.5607 -6.61225,3.46283l-3.22921,-0.13291c-21.40159,-0.88085 -29.45679,-16.26222 -17.99179,-34.35525l7.93993,-12.53009c1.27389,-2.01034 4.23429,-3.5607 6.61225,-3.46282z" fill-rule="evenodd" fill="rgb(255, 255, 255)" fill-opacity="1" style="mix-blend-mode:normal"></path></g></g></g></g></g></g></g></g></g></g><g id="lx8yjedm94074977_translate"><g transform="matrix(1,0,0,1,146.21,8.28)"><g id="lx8yjedm94074977" opacity="0" style="mix-blend-mode:normal"><g><g><g id="lx8yjedn05655796_translate"><g transform="matrix(1,0,0,1,11.9027,18.8645)"><g id="lx8yjedn05655796" opacity="1" style="mix-blend-mode:normal"><g><g><path id="lx8yjedn05655796_fill_path" d="M34.81356,115.29633c21.44887,-1.24385 44.57014,-10.18257 64.6559,-23.55068c20.08863,-13.36811 37.25063,-31.26387 46.67496,-50.57307c6.86708,-14.04017 5.504,-29.32705 1.40037,-41.17258l12.47699,16.35485c7.7004,11.04255 8.17287,27.32864 -1.09109,46.33447c-9.1351,18.69129 -25.86175,36.19459 -45.60388,49.33553c-19.74213,13.14036 -42.33361,21.82611 -63.11238,23.02928c-20.32059,1.18312 -34.83368,-5.03041 -42.31645,-15.63838l-7.89798,-11.59685c8.7886,5.51053 20.64986,8.30246 34.81356,7.47743z" fill-rule="nonzero" fill="rgb(90, 172, 143)" fill-opacity="1" style="mix-blend-mode:normal"></path><g style="mix-blend-mode:normal"><g><path id="lx8yjedn05655796_stroke_path" d="M34.81356,115.29633c21.44887,-1.24385 44.57014,-10.18257 64.6559,-23.55068c20.08863,-13.36811 37.25063,-31.26387 46.67496,-50.57307c6.86708,-14.04017 5.504,-29.32705 1.40037,-41.17258l12.47699,16.35485c7.7004,11.04255 8.17287,27.32864 -1.09109,46.33447c-9.1351,18.69129 -25.86175,36.19459 -45.60388,49.33553c-19.74213,13.14036 -42.33361,21.82611 -63.11238,23.02928c-20.32059,1.18312 -34.83368,-5.03041 -42.31645,-15.63838l-7.89798,-11.59685c8.7886,5.51053 20.64986,8.30246 34.81356,7.47743z" fill="none" stroke="rgb(64, 148, 119)" stroke-width="1" stroke-linecap="butt" stroke-linejoin="miter" stroke-dasharray="0 0" stroke-opacity="1"></path><defs><mask id="lx8yjedn05655796_gradient_mask"></mask></defs><rect x="-167.84" y="-137.1976" width="503.52" height="411.5928" fill="url(#lx8yjedn05655796ps0)" mask="url(#lx8yjedn05655796_gradient_mask)"></rect></g></g></g></g></g></g></g><g id="lx8yjedo66330221_translate"><g transform="matrix(1,0,0,1,0,0)"><g id="lx8yjedo66330221" opacity="1" style="mix-blend-mode:normal"><g><g><path id="lx8yjedo66330221_fill_path" d="M157.05321,62.29115c-9.1351,18.693 -25.86174,36.19629 -45.60386,49.33751c-19.74212,13.13922 -42.33357,21.82355 -63.09516,23.03016c-20.23181,1.17453 -34.94246,-5.29827 -42.45959,-15.83032c-7.86363,-11.0371 -8.22735,-27.09944 1.14257,-46.28346c9.11792,-18.693 25.84462,-36.1963 45.58674,-49.33552c19.74212,-13.14122 42.3336,-21.82556 63.11237,-23.03188c21.37441,-1.24099 35.12287,4.02977 42.22477,15.50832c6.84703,11.04999 7.95522,28.45876 -0.90783,46.60518z" fill-rule="nonzero" fill="rgb(90, 172, 143)" fill-opacity="1" style="mix-blend-mode:normal"></path><g style="mix-blend-mode:normal"><g><path id="lx8yjedo66330221_stroke_path" d="M157.05321,62.29115c-9.1351,18.693 -25.86174,36.19629 -45.60386,49.33751c-19.74212,13.13922 -42.33357,21.82355 -63.09516,23.03016c-20.23181,1.17453 -34.94246,-5.29827 -42.45959,-15.83032c-7.86363,-11.0371 -8.22735,-27.09944 1.14257,-46.28346c9.11792,-18.693 25.84462,-36.1963 45.58674,-49.33552c19.74212,-13.14122 42.3336,-21.82556 63.11237,-23.03188c21.37441,-1.24099 35.12287,4.02977 42.22477,15.50832c6.84703,11.04999 7.95522,28.45876 -0.90783,46.60518z" fill="none" stroke="rgb(64, 148, 119)" stroke-width="1" stroke-linecap="butt" stroke-linejoin="miter" stroke-dasharray="0 0" stroke-opacity="1"></path><defs><mask id="lx8yjedo66330221_gradient_mask"></mask></defs><rect x="-165.3987" y="-136.7958" width="496.1961" height="410.38740000000007" fill="url(#lx8yjedo66330221ps0)" mask="url(#lx8yjedo66330221_gradient_mask)"></rect></g></g></g></g></g></g></g><g id="lx8yjedp27740029_translate"><g transform="matrix(1,0,0,1,31.6078,28.1799)"><g id="lx8yjedp27740029" opacity="1" style="mix-blend-mode:normal"><g><g><path id="lx8yjedp27740029_fill_path" d="M70.03411,7.86138l-3.22921,-0.13291c-2.37796,-0.09787 -3.27298,-1.80691 -1.99909,-3.81725c1.27389,-2.01034 4.2343,-3.5607 6.61225,-3.46282l3.22921,0.13291c21.40159,0.88085 29.45679,16.26222 17.99179,34.35525l-4.83492,7.63004c-1.27389,2.01034 -4.2343,3.5607 -6.61225,3.46282c-2.37795,-0.09787 -3.27297,-1.80691 -1.99908,-3.81725l4.83492,-7.63004c8.91722,-14.07236 2.65207,-26.03564 -13.99361,-26.72075zM48.96163,0.00439c2.37795,0.09787 3.27298,1.80691 1.99909,3.81725l-9.41991,14.86567c7.01904,-3.45998 14.6978,-5.43329 21.58482,-5.14983c14.63886,0.60251 20.07949,11.16984 12.22558,23.56418l-15.11441,23.85221l3.63198,-1.90207c2.58224,-1.35232 5.30844,-1.24011 6.08914,0.25062c0.78069,1.49073 -0.67976,3.79547 -3.262,5.14779l-13.35164,6.99223c-1.49106,0.78087 -3.03013,1.07343 -4.21491,0.89423c-0.17788,0.00981 -0.35357,0.01139 -0.52619,0.00428c-2.37795,-0.09787 -3.27298,-1.80691 -1.99909,-3.81725l9.62314,-15.18637c-7.01903,3.45998 -14.69781,5.43328 -21.58483,5.14982c-14.63886,-0.60251 -20.07949,-11.16984 -12.22557,-23.56418l14.43315,-22.7771l-3.63717,1.90478c-2.58224,1.35232 -5.30844,1.24011 -6.08914,-0.25062c-0.78069,-1.49073 0.67975,-3.79547 3.262,-5.14779l13.35164,-6.99223c0.36096,-0.18903 0.72473,-0.34945 1.08561,-0.48149c1.29722,-0.76824 2.80902,-1.22887 4.1387,-1.17414zM66.73986,36.74723c5.32917,-8.41001 1.61268,-15.52468 -8.2274,-15.92968c-9.84008,-0.405 -22.15515,6.04984 -27.48431,14.45986c-5.32916,8.41001 -1.61268,15.52468 8.2274,15.92968c9.84008,0.405 22.15514,-6.04984 27.48431,-14.45985zM19.77096,20.94798c2.37795,0.09787 3.27298,1.80691 1.99909,3.81725l-7.93993,12.53009c-8.91722,14.07236 -2.65206,26.03564 13.99362,26.72075l3.2292,0.1329c2.37796,0.09787 3.27298,1.80692 1.99909,3.81726c-1.27389,2.01034 -4.23429,3.5607 -6.61225,3.46283l-3.22921,-0.13291c-21.40159,-0.88085 -29.45679,-16.26222 -17.99179,-34.35525l7.93993,-12.53009c1.27389,-2.01034 4.23429,-3.5607 6.61225,-3.46282z" fill-rule="evenodd" fill="rgb(255, 255, 255)" fill-opacity="1" style="mix-blend-mode:normal"></path></g></g></g></g></g></g></g></g></g></g><g id="lx8yjee238093532_translate"><g transform="matrix(0.9828463018608627,-0.18442653528824368,0.18442653528824368,0.9828463018608627,2.51,62.84)"><g id="lx8yjee238093532" opacity="0" style="mix-blend-mode:normal"><g><g><path id="lx8yjee238093532_fill_path" d="M21.8055,0h36.8773c12.04285,0 21.8055,9.76265 21.8055,21.8055v0c0,12.04285 -9.76265,21.8055 -21.8055,21.8055h-36.8773c-12.04285,0 -21.8055,-9.76265 -21.8055,-21.8055v0c0,-12.04285 9.76265,-21.8055 21.8055,-21.8055z" fill-rule="nonzero" fill="rgb(21, 40, 33)" fill-opacity="1" style="mix-blend-mode:normal"></path><g id="lx8yjee234750176_translate"><g transform="matrix(1,0,0,1,16.0667,10.8055)"><g id="lx8yjee234750176" opacity="1" style="mix-blend-mode:normal"><g><g><g id="lx8yjee382396016_translate"><g transform="matrix(1,0,0,1,0,3.7996)"><g id="lx8yjee382396016" opacity="1" style="mix-blend-mode:normal"><g><g><g id="lx8yjee475473550_translate"><g transform="matrix(1,0,0,1,0,0)"><g id="lx8yjee475473550" opacity="1" style="mix-blend-mode:normal"><g><g><path id="lx8yjee475473550_fill_path" d="M14.401,7.2005c0,3.9768 -3.2237,7.2005 -7.2005,7.2005c-3.9768,0 -7.2005,-3.2237 -7.2005,-7.2005c0,-3.9768 3.2237,-7.2005 7.2005,-7.2005c3.9768,0 7.2005,3.2237 7.2005,7.2005z" fill-rule="nonzero" fill="rgb(90, 172, 143)" fill-opacity="1" style="mix-blend-mode:normal"></path></g></g></g></g></g><g id="lx8yjee445960587_translate"><g transform="matrix(1,0,0,1,2.6463,2.6458)"><g id="lx8yjee445960587" opacity="1" style="mix-blend-mode:normal"><g><g><path id="lx8yjee445960587_fill_path" d="M4.90444,0.93418l-0.35031,0c-0.25797,0 -0.46709,-0.20912 -0.46709,-0.46709c0,-0.25797 0.20912,-0.46709 0.46709,-0.46709l0.35031,0c2.3217,0 4.20381,1.88211 4.20381,4.20381v0.97909c0,0.25797 -0.20912,0.46709 -0.46709,0.46709c-0.25797,0 -0.46709,-0.20912 -0.46709,-0.46709v-0.97909c0,-1.80577 -1.46386,-3.26963 -3.26963,-3.26963zM2.15017,0.06006c0.25797,0 0.46709,0.20912 0.46709,0.46709l0,1.90756c0.51029,-0.46883 1.18993,-0.75513 1.93705,-0.75513c1.58806,0 2.87123,1.29353 2.87123,2.88397l0,3.06072l0.25656,-0.25656c0.18241,-0.18241 0.47816,-0.18241 0.66057,0c0.18241,0.18241 0.18241,0.47816 0,0.66057l-0.94316,0.94316c-0.10533,0.10533 -0.24845,0.14984 -0.38571,0.13353c-0.01815,0.00214 -0.03662,0.00324 -0.05534,0.00324c-0.25797,0 -0.46709,-0.20912 -0.46709,-0.46709v-1.94872c-0.51029,0.46883 -1.18993,0.75513 -1.93705,0.75513c-1.58806,0 -2.87123,-1.29353 -2.87123,-2.88397l0,-2.92276l-0.25693,0.25693c-0.18241,0.18241 -0.47816,0.18241 -0.66057,0c-0.18241,-0.18241 -0.18241,-0.47816 0,-0.66057l0.94316,-0.94316c0.0255,-0.0255 0.05321,-0.04743 0.08252,-0.0658c0.08568,-0.10275 0.21466,-0.16814 0.3589,-0.16814zM6.49136,4.56356c0,-1.07917 -0.86957,-1.94979 -1.93705,-1.94979c-1.06748,0 -1.93705,0.87062 -1.93705,1.9498c0,1.07917 0.86957,1.94979 1.93705,1.94979c1.06748,0 1.93705,-0.87062 1.93705,-1.9498zM0.46709,2.82948c0.25797,0 0.46709,0.20912 0.46709,0.46709l0,1.60786c0,1.80577 1.46386,3.26963 3.26963,3.26963h0.35031c0.25797,0 0.46709,0.20912 0.46709,0.46709c0,0.25797 -0.20912,0.46709 -0.46709,0.46709h-0.35031c-2.3217,0 -4.20381,-1.88211 -4.20381,-4.20381l0,-1.60786c0,-0.25797 0.20912,-0.46709 0.46709,-0.46709z" fill-rule="evenodd" fill="rgb(255, 255, 255)" fill-opacity="1" style="mix-blend-mode:normal"></path></g></g></g></g></g></g></g></g></g></g><g id="lx8yjee839129758_translate"><g transform="matrix(1,0,0,1,17.3549,0)"><g id="lx8yjee839129758" opacity="1" style="mix-blend-mode:normal"><g><g><path id="lx8yjee839129758_fill_path" d="M1.6875,10.9688h3.35938v-3.35942h1.28124v3.35942h3.35938v1.2812h-3.35938v3.375h-1.28124v-3.375h-3.35938zM15.6406,17.1953c-1.1823,0 -2.1302,-0.3463 -2.8437,-1.0391c-0.7084,-0.6979 -1.0625,-1.6223 -1.0625,-2.7734h1.5547c0,0.7396 0.2135,1.3255 0.6406,1.7578c0.4271,0.4271 1.0078,0.6406 1.7422,0.6406c0.7812,0 1.4062,-0.2369 1.875,-0.7109c0.4687,-0.4739 0.7031,-1.1042 0.7031,-1.8906c0,-0.7604 -0.2292,-1.3828 -0.6875,-1.8672c-0.4583,-0.4844 -1.0833,-0.7266 -1.875,-0.7266c-0.4792,0 -0.9323,0.1016 -1.3594,0.3047c-0.4219,0.2032 -0.7682,0.474 -1.039,0.8125l-1.3282,-0.3359l1.4063,-5.93751h5.7969v1.44531h-4.6563l-0.7734,3.07031c0.6198,-0.46875 1.3672,-0.70312 2.2422,-0.70312c1.1614,0 2.0963,0.36198 2.8046,1.08591c0.7136,0.724 1.0704,1.6511 1.0704,2.7813c0,1.2031 -0.3907,2.1849 -1.1719,2.9453c-0.7813,0.7604 -1.7943,1.1406 -3.0391,1.1406zM29.8281,14.6641h-1.375v2.3359h-1.5v-2.3359h-5.9843v-1.3907l5.4531,-7.84371h2.0312v7.84371h1.375zM22.6641,13.2734h4.289v-6.17965z" fill-rule="nonzero" fill="rgb(90, 172, 143)" fill-opacity="1" style="mix-blend-mode:normal"></path></g></g></g></g></g></g></g></g></g></g></g></g></g></g></g><g id="lx8yjeea28044734_translate"><g transform="matrix(0.9999086861511762,0.013513673054668053,-0.013513673054668053,0.9999086861511762,-6.5,199.76)"><g id="lx8yjeea28044734" opacity="0" style="mix-blend-mode:normal"><g><g><path id="lx8yjeea28044734_fill_path" d="M21.8055,0h36.8773c12.04285,0 21.8055,9.76265 21.8055,21.8055v0c0,12.04285 -9.76265,21.8055 -21.8055,21.8055h-36.8773c-12.04285,0 -21.8055,-9.76265 -21.8055,-21.8055v0c0,-12.04285 9.76265,-21.8055 21.8055,-21.8055z" fill-rule="nonzero" fill="rgb(21, 40, 33)" fill-opacity="1" style="mix-blend-mode:normal"></path><g id="lx8yjeea28220499_translate"><g transform="matrix(1,0,0,1,11.5667,10.8055)"><g id="lx8yjeea28220499" opacity="1" style="mix-blend-mode:normal"><g><g><g id="lx8yjeea88505856_translate"><g transform="matrix(1,0,0,1,0,3.7996)"><g id="lx8yjeea88505856" opacity="1" style="mix-blend-mode:normal"><g><g><g id="lx8yjeea29635936_translate"><g transform="matrix(1,0,0,1,0,0)"><g id="lx8yjeea29635936" opacity="1" style="mix-blend-mode:normal"><g><g><path id="lx8yjeea29635936_fill_path" d="M14.401,7.2005c0,3.9768 -3.2237,7.2005 -7.2005,7.2005c-3.9768,0 -7.2005,-3.2237 -7.2005,-7.2005c0,-3.9768 3.2237,-7.2005 7.2005,-7.2005c3.9768,0 7.2005,3.2237 7.2005,7.2005z" fill-rule="nonzero" fill="rgb(90, 172, 143)" fill-opacity="1" style="mix-blend-mode:normal"></path></g></g></g></g></g><g id="lx8yjeeb20900535_translate"><g transform="matrix(1,0,0,1,2.6463,2.6458)"><g id="lx8yjeeb20900535" opacity="1" style="mix-blend-mode:normal"><g><g><path id="lx8yjeeb20900535_fill_path" d="M4.90444,0.93418l-0.35031,0c-0.25797,0 -0.46709,-0.20912 -0.46709,-0.46709c0,-0.25797 0.20912,-0.46709 0.46709,-0.46709l0.35031,0c2.3217,0 4.20381,1.88211 4.20381,4.20381v0.97909c0,0.25797 -0.20912,0.46709 -0.46709,0.46709c-0.25797,0 -0.46709,-0.20912 -0.46709,-0.46709v-0.97909c0,-1.80577 -1.46386,-3.26963 -3.26963,-3.26963zM2.15017,0.06006c0.25797,0 0.46709,0.20912 0.46709,0.46709l0,1.90756c0.51029,-0.46883 1.18993,-0.75513 1.93705,-0.75513c1.58806,0 2.87123,1.29353 2.87123,2.88397l0,3.06072l0.25656,-0.25656c0.18241,-0.18241 0.47816,-0.18241 0.66057,0c0.18241,0.18241 0.18241,0.47816 0,0.66057l-0.94316,0.94316c-0.10533,0.10533 -0.24845,0.14984 -0.38571,0.13353c-0.01815,0.00214 -0.03662,0.00324 -0.05534,0.00324c-0.25797,0 -0.46709,-0.20912 -0.46709,-0.46709v-1.94872c-0.51029,0.46883 -1.18993,0.75513 -1.93705,0.75513c-1.58806,0 -2.87123,-1.29353 -2.87123,-2.88397l0,-2.92276l-0.25693,0.25693c-0.18241,0.18241 -0.47816,0.18241 -0.66057,0c-0.18241,-0.18241 -0.18241,-0.47816 0,-0.66057l0.94316,-0.94316c0.0255,-0.0255 0.05321,-0.04743 0.08252,-0.0658c0.08568,-0.10275 0.21466,-0.16814 0.3589,-0.16814zM6.49136,4.56356c0,-1.07917 -0.86957,-1.94979 -1.93705,-1.94979c-1.06748,0 -1.93705,0.87062 -1.93705,1.9498c0,1.07917 0.86957,1.94979 1.93705,1.94979c1.06748,0 1.93705,-0.87062 1.93705,-1.9498zM0.46709,2.82948c0.25797,0 0.46709,0.20912 0.46709,0.46709l0,1.60786c0,1.80577 1.46386,3.26963 3.26963,3.26963h0.35031c0.25797,0 0.46709,0.20912 0.46709,0.46709c0,0.25797 -0.20912,0.46709 -0.46709,0.46709h-0.35031c-2.3217,0 -4.20381,-1.88211 -4.20381,-4.20381l0,-1.60786c0,-0.25797 0.20912,-0.46709 0.46709,-0.46709z" fill-rule="evenodd" fill="rgb(255, 255, 255)" fill-opacity="1" style="mix-blend-mode:normal"></path></g></g></g></g></g></g></g></g></g></g><g id="lx8yjeef68323335_translate"><g transform="matrix(1,0,0,1,17.3549,0)"><g id="lx8yjeef68323335" opacity="1" style="mix-blend-mode:normal"><g><g><path id="lx8yjeef68323335_fill_path" d="M1.48438,10.9688h3.35937v-3.35942h1.28125v3.35942h3.35938v1.2812h-3.35938v3.375h-1.28125v-3.375h-3.35937zM20.1719,14.6641h-1.375v2.3359h-1.5v-2.3359h-5.9844v-1.3907l5.4531,-7.84371h2.0313v7.84371h1.375zM13.0078,13.2734h4.2891v-6.17965zM25.0156,11.0156h-1.1484v-1.03904l3.2812,-3.15625h-5.2031v-1.39062h7.1875v1.26562l-3.1719,3.02344c1.0157,0.125 1.8438,0.51305 2.4844,1.16405c0.6458,0.6458 0.9688,1.474 0.9688,2.4844c0,1.151 -0.3881,2.0781 -1.1641,2.7812c-0.7708,0.698 -1.7526,1.0469 -2.9453,1.0469c-1.1615,0 -2.1042,-0.3385 -2.8281,-1.0156c-0.7188,-0.6771 -1.0782,-1.6042 -1.0782,-2.7813h1.5547c0,0.7448 0.2136,1.3282 0.6407,1.75c0.427,0.4219 1.0078,0.6328 1.7421,0.6328c0.7552,0 1.3568,-0.2213 1.8047,-0.664c0.4532,-0.4479 0.6797,-1.0417 0.6797,-1.7813c0,-0.7135 -0.2422,-1.2786 -0.7265,-1.6953c-0.4844,-0.4166 -1.1771,-0.625 -2.0782,-0.625zM37.5391,13.3359l-2.711,3.6641h-1.8203l2.8984,-3.8438c-0.4114,0.1615 -0.8177,0.2422 -1.2187,0.2422c-1.1875,0 -2.1536,-0.3802 -2.8984,-1.1406c-0.7448,-0.7604 -1.1172,-1.7239 -1.1172,-2.89061c0,-0.78646 0.1849,-1.49479 0.5547,-2.125c0.3698,-0.63542 0.875,-1.13021 1.5156,-1.48438c0.6406,-0.35416 1.3542,-0.53125 2.1406,-0.53125c0.7865,0 1.5052,0.18229 2.1563,0.54688c0.651,0.35937 1.1614,0.85937 1.5312,1.5c0.375,0.63541 0.5625,1.33854 0.5625,2.10937c0,0.67709 -0.1172,1.30209 -0.3516,1.87499c-0.2291,0.5729 -0.6432,1.2656 -1.2421,2.0781zM36.7969,11.3203c0.4948,-0.5052 0.7422,-1.1562 0.7422,-1.95311c0,-0.79688 -0.2474,-1.45052 -0.7422,-1.96094c-0.4948,-0.51563 -1.1328,-0.77344 -1.9141,-0.77344c-0.7656,0 -1.3958,0.25781 -1.8906,0.77344c-0.4896,0.51042 -0.7344,1.16406 -0.7344,1.96094c0,0.79171 0.2448,1.44011 0.7344,1.94531c0.4896,0.5052 1.1198,0.7578 1.8906,0.7578c0.7813,0 1.4193,-0.25 1.9141,-0.75z" fill-rule="nonzero" fill="rgb(90, 172, 143)" fill-opacity="1" style="mix-blend-mode:normal"></path></g></g></g></g></g></g></g></g></g></g></g></g></g></g></g><g id="m2d9wnuf42949980_translate"><g transform="matrix(0.9879444697084059,0.15480867150317093,-0.15480867150317093,0.9879444697084059,395.64,41.57)"><g id="m2d9wnuf42949980" opacity="0" style="mix-blend-mode:normal"><g><g><path id="m2d9wnuf42949980_fill_path" d="M21.8055,0h36.8773c12.04285,0 21.8055,9.76265 21.8055,21.8055v0c0,12.04285 -9.76265,21.8055 -21.8055,21.8055h-36.8773c-12.04285,0 -21.8055,-9.76265 -21.8055,-21.8055v0c0,-12.04285 9.76265,-21.8055 21.8055,-21.8055z" fill-rule="nonzero" fill="rgb(21, 40, 33)" fill-opacity="1" style="mix-blend-mode:normal"></path><g id="m2d9wnuf07399444_translate"><g transform="matrix(1,0,0,1,8.5667,10.8055)"><g id="m2d9wnuf07399444" opacity="1" style="mix-blend-mode:normal"><g><g><g id="m2d9wnuf63641650_translate"><g transform="matrix(1,0,0,1,0,3.7996)"><g id="m2d9wnuf63641650" opacity="1" style="mix-blend-mode:normal"><g><g><g id="m2d9wnuf16345979_translate"><g transform="matrix(1,0,0,1,0,0)"><g id="m2d9wnuf16345979" opacity="1" style="mix-blend-mode:normal"><g><g><path id="m2d9wnuf16345979_fill_path" d="M14.401,7.2005c0,3.9768 -3.2237,7.2005 -7.2005,7.2005c-3.9768,0 -7.2005,-3.2237 -7.2005,-7.2005c0,-3.9768 3.2237,-7.2005 7.2005,-7.2005c3.9768,0 7.2005,3.2237 7.2005,7.2005z" fill-rule="nonzero" fill="rgb(90, 172, 143)" fill-opacity="1" style="mix-blend-mode:normal"></path></g></g></g></g></g><g id="m2d9wnug63120422_translate"><g transform="matrix(1,0,0,1,2.6463,2.6458)"><g id="m2d9wnug63120422" opacity="1" style="mix-blend-mode:normal"><g><g><path id="m2d9wnug63120422_fill_path" d="M4.90444,0.93418l-0.35031,0c-0.25797,0 -0.46709,-0.20912 -0.46709,-0.46709c0,-0.25797 0.20912,-0.46709 0.46709,-0.46709l0.35031,0c2.3217,0 4.20381,1.88211 4.20381,4.20381v0.97909c0,0.25797 -0.20912,0.46709 -0.46709,0.46709c-0.25797,0 -0.46709,-0.20912 -0.46709,-0.46709v-0.97909c0,-1.80577 -1.46386,-3.26963 -3.26963,-3.26963zM2.15017,0.06006c0.25797,0 0.46709,0.20912 0.46709,0.46709l0,1.90756c0.51029,-0.46883 1.18993,-0.75513 1.93705,-0.75513c1.58806,0 2.87123,1.29353 2.87123,2.88397l0,3.06072l0.25656,-0.25656c0.18241,-0.18241 0.47816,-0.18241 0.66057,0c0.18241,0.18241 0.18241,0.47816 0,0.66057l-0.94316,0.94316c-0.10533,0.10533 -0.24845,0.14984 -0.38571,0.13353c-0.01815,0.00214 -0.03662,0.00324 -0.05534,0.00324c-0.25797,0 -0.46709,-0.20912 -0.46709,-0.46709v-1.94872c-0.51029,0.46883 -1.18993,0.75513 -1.93705,0.75513c-1.58806,0 -2.87123,-1.29353 -2.87123,-2.88397l0,-2.92276l-0.25693,0.25693c-0.18241,0.18241 -0.47816,0.18241 -0.66057,0c-0.18241,-0.18241 -0.18241,-0.47816 0,-0.66057l0.94316,-0.94316c0.0255,-0.0255 0.05321,-0.04743 0.08252,-0.0658c0.08568,-0.10275 0.21466,-0.16814 0.3589,-0.16814zM6.49136,4.56356c0,-1.07917 -0.86957,-1.94979 -1.93705,-1.94979c-1.06748,0 -1.93705,0.87062 -1.93705,1.9498c0,1.07917 0.86957,1.94979 1.93705,1.94979c1.06748,0 1.93705,-0.87062 1.93705,-1.9498zM0.46709,2.82948c0.25797,0 0.46709,0.20912 0.46709,0.46709l0,1.60786c0,1.80577 1.46386,3.26963 3.26963,3.26963h0.35031c0.25797,0 0.46709,0.20912 0.46709,0.46709c0,0.25797 -0.20912,0.46709 -0.46709,0.46709h-0.35031c-2.3217,0 -4.20381,-1.88211 -4.20381,-4.20381l0,-1.60786c0,-0.25797 0.20912,-0.46709 0.46709,-0.46709z" fill-rule="evenodd" fill="rgb(255, 255, 255)" fill-opacity="1" style="mix-blend-mode:normal"></path></g></g></g></g></g></g></g></g></g></g><g id="m2d9wnuk46600888_translate"><g transform="matrix(1,0,0,1,17.3549,0)"><g id="m2d9wnuk46600888" opacity="1" style="mix-blend-mode:normal"><g><g><path id="m2d9wnuk46600888_fill_path" d="M1.53125,10.9688h3.35937v-3.35942h1.28126v3.35942h3.35937v1.2812h-3.35937v3.375h-1.28126v-3.375h-3.35937zM13.8047,6.84375h-2.4297v-1.41406h3.9297v11.57031h-1.5zM19.9844,16.375c0,0.5729 -0.1927,1.0729 -0.5782,1.5c-0.3802,0.4323 -0.8541,0.6849 -1.4218,0.7578v-0.6719c0.3281,-0.052 0.5963,-0.177 0.8047,-0.375c0.2083,-0.1979 0.3125,-0.4192 0.3125,-0.664c-0.1094,0.0625 -0.2526,0.0937 -0.4297,0.0937c-0.2709,0 -0.5026,-0.0885 -0.6953,-0.2656c-0.1875,-0.1823 -0.2813,-0.4193 -0.2813,-0.7109c0,-0.323 0.099,-0.586 0.2969,-0.7891c0.1979,-0.2083 0.4557,-0.3125 0.7734,-0.3125c0.3438,0 0.6328,0.1328 0.8672,0.3984c0.2344,0.2605 0.3516,0.6068 0.3516,1.0391zM30.1875,14.6641h-1.375v2.3359h-1.5v-2.3359h-5.9844v-1.3907l5.4531,-7.84371h2.0313v7.84371h1.375zM23.0234,13.2734h4.2891v-6.17965zM35.4375,17.1953c-1.1823,0 -2.1302,-0.3463 -2.8437,-1.0391c-0.7084,-0.6979 -1.0626,-1.6223 -1.0626,-2.7734h1.5547c0,0.7396 0.2136,1.3255 0.6407,1.7578c0.427,0.4271 1.0078,0.6406 1.7422,0.6406c0.7812,0 1.4062,-0.2369 1.875,-0.7109c0.4687,-0.4739 0.7031,-1.1042 0.7031,-1.8906c0,-0.7604 -0.2292,-1.3828 -0.6875,-1.8672c-0.4584,-0.4844 -1.0834,-0.7266 -1.875,-0.7266c-0.4792,0 -0.9323,0.1016 -1.3594,0.3047c-0.4219,0.2032 -0.7682,0.474 -1.0391,0.8125l-1.3281,-0.3359l1.4063,-5.93751h5.7968v1.44531h-4.6562l-0.7735,3.07031c0.6198,-0.46875 1.3672,-0.70312 2.2422,-0.70312c1.1615,0 2.0964,0.36198 2.8047,1.08591c0.7136,0.724 1.0703,1.6511 1.0703,2.7813c0,1.2031 -0.3906,2.1849 -1.1718,2.9453c-0.7813,0.7604 -1.7943,1.1406 -3.0391,1.1406zM42.9141,6.84375h-2.4297v-1.41406h3.9297v11.57031h-1.5z" fill-rule="nonzero" fill="rgb(90, 172, 143)" fill-opacity="1" style="mix-blend-mode:normal"></path></g></g></g></g></g></g></g></g></g></g></g></g></g></g></g></g></g></g></g></g><animateTransform href="#lx8yjed452712948_translate" attributeName="transform" type="translate" values="0 0;0 0;0 53.1157;-0.0009 53.1182;-0.0009 1.3704;-0.0009 1.3704" dur="5s" repeatCount="indefinite" calcMode="spline" keyTimes="0;0.1;0.26;0.77;0.93;1" keySplines="0.5 0.35 0.15 1;0.5 0.35 0.15 1;0.5 0.35 0.15 1;0.5 0.35 0.15 1;0.5 0.35 0.15 1" additive="sum" fill="freeze"></animateTransform><animate href="#lx8yjed452712948" attributeName="opacity" values="0;0;1;1;0;0" dur="5s" repeatCount="indefinite" calcMode="spline" keyTimes="0;0.1;0.26;0.77;0.93;1" keySplines="0.5 0.35 0.15 1;0.5 0.35 0.15 1;0.5 0.35 0.15 1;0.5 0.35 0.15 1;0.5 0.35 0.15 1" additive="replace" fill="freeze"></animate><animateTransform href="#lx8yjede16384013_translate" attributeName="transform" type="translate" values="0 0;0 0;0 53.1157;-0.0009 53.1182;-0.0009 1.3704;-0.0009 1.3704" dur="5s" repeatCount="indefinite" calcMode="spline" keyTimes="0;0.28;0.41;0.81;0.93;1" keySplines="0.5 0.35 0.15 1;0.5 0.35 0.15 1;0.5 0.35 0.15 1;0.5 0.35 0.15 1;0.5 0.35 0.15 1" additive="sum" fill="freeze"></animateTransform><animate href="#lx8yjede16384013" attributeName="opacity" values="0;0;1;1;0;0" dur="5s" repeatCount="indefinite" calcMode="spline" keyTimes="0;0.28;0.41;0.81;0.93;1" keySplines="0.5 0.35 0.15 1;0.5 0.35 0.15 1;0.5 0.35 0.15 1;0.5 0.35 0.15 1;0.5 0.35 0.15 1" additive="replace" fill="freeze"></animate><animateTransform href="#lx8yjedm94074977_translate" attributeName="transform" type="translate" values="0 0;0 0;0 53.1157;-0.0009 53.1182;-0.0009 1.3704;-0.0009 1.3704" dur="5s" repeatCount="indefinite" calcMode="spline" keyTimes="0;0.46;0.55;0.84;0.93;1" keySplines="0.5 0.35 0.15 1;0.5 0.35 0.15 1;0.5 0.35 0.15 1;0.5 0.35 0.15 1;0.5 0.35 0.15 1" additive="sum" fill="freeze"></animateTransform><animate href="#lx8yjedm94074977" attributeName="opacity" values="0;0;1;1;0;0" dur="5s" repeatCount="indefinite" calcMode="spline" keyTimes="0;0.46;0.55;0.84;0.93;1" keySplines="0.5 0.35 0.15 1;0.5 0.35 0.15 1;0.5 0.35 0.15 1;0.5 0.35 0.15 1;0.5 0.35 0.15 1" additive="replace" fill="freeze"></animate><animateTransform href="#lx8yjee238093532_translate" attributeName="transform" type="translate" values="0 0;0 0;80.4883 0;80.4883 -0.0042;0.1081 -0.0042;0 -0.0042" dur="5s" repeatCount="indefinite" calcMode="spline" keyTimes="0;0.53;0.69;0.85;1;1" keySplines="0.5 0.35 0.15 1;0.5 0.35 0.15 1;0.5 0.35 0.15 1;0.5 0.35 1 1;0.5 0.35 0.15 1" additive="sum" fill="freeze"></animateTransform><animate href="#lx8yjee238093532" attributeName="opacity" values="0;0;1;1;0.0013;0" dur="5s" repeatCount="indefinite" calcMode="spline" keyTimes="0;0.53;0.69;0.85;1;1" keySplines="0.5 0.35 0.15 1;0.5 0.35 0.15 1;0.5 0.35 0.15 1;0.5 0.35 1 1;0.5 0.35 0.15 1" additive="replace" fill="freeze"></animate><animateTransform href="#lx8yjeea28044734_translate" attributeName="transform" type="translate" values="0 0;0 0;80.4883 0;80.4881 0.0022;0.1079 0.0022;-0.0002 0.0022" dur="5s" repeatCount="indefinite" calcMode="spline" keyTimes="0;0.34;0.5;0.85;1;1" keySplines="0.5 0.35 0.15 1;0.5 0.35 0.15 1;0.5 0.35 0.15 1;0.5 0.35 1 1;0.5 0.35 0.15 1" additive="sum" fill="freeze"></animateTransform><animate href="#lx8yjeea28044734" attributeName="opacity" values="0;0;1;1;0.0013;0" dur="5s" repeatCount="indefinite" calcMode="spline" keyTimes="0;0.34;0.5;0.85;1;1" keySplines="0.5 0.35 0.15 1;0.5 0.35 0.15 1;0.5 0.35 0.15 1;0.5 0.35 1 1;0.5 0.35 0.15 1" additive="replace" fill="freeze"></animate><animateTransform href="#m2d9wnuf42949980_translate" attributeName="transform" type="translate" values="0 0;0 0;-80.4883 0;-80.4906 0.0046;-0.0023 0.0046;-0.0023 0.0046" dur="5s" repeatCount="indefinite" calcMode="spline" keyTimes="0;0.17;0.29;0.86;0.98;1" keySplines="0.5 0.35 0.15 1;0.5 0.35 0.15 1;0.5 0.35 0.15 1;0.5 0.35 0.15 1;0.5 0.35 0.15 1" additive="sum" fill="freeze"></animateTransform><animate href="#m2d9wnuf42949980" attributeName="opacity" values="0;0;1;1;0;0" dur="5s" repeatCount="indefinite" calcMode="spline" keyTimes="0;0.17;0.29;0.86;0.98;1" keySplines="0.5 0.35 0.15 1;0.5 0.35 0.15 1;0.5 0.35 0.15 1;0.5 0.35 0.15 1;0.5 0.35 0.15 1" additive="replace" fill="freeze"></animate></svg>